{"asset":{"version":"2.0","generator":"Blockbench 5.1.4 glTF exporter"},"scenes":[{"nodes":[4],"name":"blockbench_export"}],"scene":0,"nodes":[{"name":"cylinder","mesh":0},{"rotation":[-0.4999999999999999,0.5,-0.5,0.5000000000000001],"translation":[-0.4375,0,0],"name":"plane","mesh":1},{"translation":[0,1,0],"name":"flag","children":[1]},{"name":"pole","children":[0,2]},{"name":"root","children":[3]}],"bufferViews":[{"buffer":0,"byteOffset":0,"byteLength":1440,"target":34962,"byteStride":12},{"buffer":0,"byteOffset":1440,"byteLength":1440,"target":34962,"byteStride":12},{"buffer":0,"byteOffset":2880,"byteLength":960,"target":34962,"byteStride":8},{"buffer":0,"byteOffset":3840,"byteLength":288,"target":34963},{"buffer":0,"byteOffset":4128,"byteLength":48,"target":34962,"byteStride":12},{"buffer":0,"byteOffset":4176,"byteLength":48,"target":34962,"byteStride":12},{"buffer":0,"byteOffset":4224,"byteLength":32,"target":34962,"byteStride":8},{"buffer":0,"byteOffset":4256,"byteLength":12,"target":34963},{"buffer":0,"byteOffset":4268,"byteLength":64},{"buffer":0,"byteOffset":4332,"byteLength":192},{"buffer":0,"byteOffset":4524,"byteLength":64},{"buffer":0,"byteOffset":4588,"byteLength":256}],"buffers":[{"byteLength":4844,"uri":"data:application/octet-stream;base64,"}],"accessors":[{"bufferView":0,"componentType":5126,"count":120,"max":[0.03125,1.5,0.03125],"min":[-0.03125,0,-0.03125],"type":"VEC3"},{"bufferView":1,"componentType":5126,"count":120,"max":[1,1,1],"min":[-1,-1,-1],"type":"VEC3"},{"bufferView":2,"componentType":5126,"count":120,"max":[0.2797187566757202,0.640625],"min":[0.0015312499599531293,0],"type":"VEC2"},{"bufferView":3,"componentType":5123,"count":144,"max":[119],"min":[0],"type":"SCALAR"},{"bufferView":4,"componentType":5126,"count":4,"max":[0.375,0,0.5],"min":[-0.375,0,-0.5],"type":"VEC3"},{"bufferView":5,"componentType":5126,"count":4,"max":[0,1,0],"min":[0,1,0],"type":"VEC3"},{"bufferView":6,"componentType":5126,"count":4,"max":[0.1875,0.25],"min":[0,0],"type":"VEC2"},{"bufferView":7,"componentType":5123,"count":6,"max":[3],"min":[0],"type":"SCALAR"},{"bufferView":8,"componentType":5126,"count":16,"max":[0.9583333134651184],"min":[0],"type":"SCALAR"},{"bufferView":9,"componentType":5126,"count":16,"max":[1.237963318824768,1.237963318824768,1.237963318824768],"min":[0.7944422364234924,0.7944422364234924,0.7944422364234924],"type":"VEC3"},{"bufferView":10,"componentType":5126,"count":16,"max":[0.9583333134651184],"min":[0],"type":"SCALAR"},{"bufferView":11,"componentType":5126,"count":16,"max":[0.22943376004695892,0.05574765056371689,0.22943376004695892,1],"min":[-0.16894714534282684,0,-0.16894714534282684,0.9442523717880249],"type":"VEC4"}],"materials":[{"pbrMetallicRoughness":{"metallicFactor":0,"roughnessFactor":1,"baseColorTexture":{"index":0}},"alphaMode":"MASK","alphaCutoff":0.05,"doubleSided":true}],"textures":[{"sampler":0,"source":0,"name":"checkpointflag"}],"samplers":[{"magFilter":9728,"minFilter":9728,"wrapS":33071,"wrapT":33071}],"images":[{"mimeType":"image/png","uri":"data:image/png;base64,"}],"meshes":[{"primitives":[{"mode":4,"attributes":{"POSITION":0,"NORMAL":1,"TEXCOORD_0":2},"indices":3,"material":0}]},{"primitives":[{"mode":4,"attributes":{"POSITION":4,"NORMAL":5,"TEXCOORD_0":6},"indices":7,"material":0}]}],"animations":[{"name":"get","samplers":[{"input":8,"output":9,"interpolation":"LINEAR"},{"input":10,"output":11,"interpolation":"LINEAR"}],"channels":[{"sampler":0,"target":{"node":4,"path":"scale"}},{"sampler":1,"target":{"node":3,"path":"rotation"}}]}]}