{"asset":{"version":"2.0","generator":"Blockbench 5.1.4 glTF exporter"},"scenes":[{"nodes":[1],"name":"blockbench_export"}],"scene":0,"nodes":[{"rotation":[0,0,0.7071067811865475,0.7071067811865476],"name":"cylinder","mesh":0},{"name":"root","children":[0]}],"bufferViews":[{"buffer":0,"byteOffset":0,"byteLength":1080,"target":34962,"byteStride":12},{"buffer":0,"byteOffset":1080,"byteLength":1080,"target":34962,"byteStride":12},{"buffer":0,"byteOffset":2160,"byteLength":720,"target":34962,"byteStride":8},{"buffer":0,"byteOffset":2880,"byteLength":180,"target":34963}],"buffers":[{"byteLength":3060,"uri":"data:application/octet-stream;base64,"}],"accessors":[{"bufferView":0,"componentType":5126,"count":90,"max":[0.525731086730957,0.125,0.5],"min":[-0.4253253936767578,-0.125,-0.5],"type":"VEC3"},{"bufferView":1,"componentType":5126,"count":90,"max":[0.99930739402771,0.9715300798416138,0.9836037158966064],"min":[-0.9000793695449829,-0.9715300798416138,-0.9836037158966064],"type":"VEC3"},{"bufferView":2,"componentType":5126,"count":90,"max":[0.8659337162971497,0.813127875328064],"min":[0,0],"type":"VEC2"},{"bufferView":3,"componentType":5123,"count":90,"max":[89],"min":[0],"type":"SCALAR"}],"materials":[{"pbrMetallicRoughness":{"metallicFactor":0,"roughnessFactor":1,"baseColorTexture":{"index":0}},"alphaMode":"MASK","alphaCutoff":0.05,"doubleSided":true}],"textures":[{"sampler":0,"source":0,"name":"star"}],"samplers":[{"magFilter":9728,"minFilter":9728,"wrapS":33071,"wrapT":33071}],"images":[{"mimeType":"image/png","uri":"data:image/png;base64,"}],"meshes":[{"primitives":[{"mode":4,"attributes":{"POSITION":0,"NORMAL":1,"TEXCOORD_0":2},"indices":3,"material":0}]}]}