{"asset":{"version":"2.0","generator":"Blockbench 5.1.4 glTF exporter"},"scenes":[{"nodes":[13],"name":"blockbench_export"}],"scene":0,"nodes":[{"translation":[0,0.0625,0],"name":"trunk","mesh":0},{"translation":[0,-0.4375,0],"name":"cone","mesh":1},{"translation":[0,2.625,0],"name":"leaves1","children":[1]},{"translation":[0,-0.4375,0],"name":"cone","mesh":2},{"translation":[0,3.3125,0],"name":"leaves2","children":[3]},{"translation":[0,-0.4375,0],"name":"cone","mesh":3},{"translation":[0,5,0],"name":"leaves5","children":[5]},{"translation":[0,-0.375,0],"name":"cone","mesh":4},{"translation":[0,4.4375,0],"name":"leaves4","children":[7]},{"translation":[0,-0.4375,0],"name":"cone","mesh":5},{"translation":[0,3.875,0],"name":"leaves3","children":[9]},{"translation":[0,-0.4375,0],"name":"cone","mesh":6},{"translation":[0,5.4375,0],"name":"leaves6","children":[11]},{"name":"root","children":[0,2,4,6,8,10,12]}],"bufferViews":[{"buffer":0,"byteOffset":0,"byteLength":864,"target":34962,"byteStride":12},{"buffer":0,"byteOffset":864,"byteLength":864,"target":34962,"byteStride":12},{"buffer":0,"byteOffset":1728,"byteLength":576,"target":34962,"byteStride":8},{"buffer":0,"byteOffset":2304,"byteLength":144,"target":34963},{"buffer":0,"byteOffset":2448,"byteLength":864,"target":34962,"byteStride":12},{"buffer":0,"byteOffset":3312,"byteLength":864,"target":34962,"byteStride":12},{"buffer":0,"byteOffset":4176,"byteLength":576,"target":34962,"byteStride":8},{"buffer":0,"byteOffset":4752,"byteLength":144,"target":34963},{"buffer":0,"byteOffset":4896,"byteLength":864,"target":34962,"byteStride":12},{"buffer":0,"byteOffset":5760,"byteLength":864,"target":34962,"byteStride":12},{"buffer":0,"byteOffset":6624,"byteLength":576,"target":34962,"byteStride":8},{"buffer":0,"byteOffset":7200,"byteLength":144,"target":34963},{"buffer":0,"byteOffset":7344,"byteLength":864,"target":34962,"byteStride":12},{"buffer":0,"byteOffset":8208,"byteLength":864,"target":34962,"byteStride":12},{"buffer":0,"byteOffset":9072,"byteLength":576,"target":34962,"byteStride":8},{"buffer":0,"byteOffset":9648,"byteLength":144,"target":34963},{"buffer":0,"byteOffset":9792,"byteLength":864,"target":34962,"byteStride":12},{"buffer":0,"byteOffset":10656,"byteLength":864,"target":34962,"byteStride":12},{"buffer":0,"byteOffset":11520,"byteLength":576,"target":34962,"byteStride":8},{"buffer":0,"byteOffset":12096,"byteLength":144,"target":34963},{"buffer":0,"byteOffset":12240,"byteLength":864,"target":34962,"byteStride":12},{"buffer":0,"byteOffset":13104,"byteLength":864,"target":34962,"byteStride":12},{"buffer":0,"byteOffset":13968,"byteLength":576,"target":34962,"byteStride":8},{"buffer":0,"byteOffset":14544,"byteLength":144,"target":34963},{"buffer":0,"byteOffset":14688,"byteLength":864,"target":34962,"byteStride":12},{"buffer":0,"byteOffset":15552,"byteLength":864,"target":34962,"byteStride":12},{"buffer":0,"byteOffset":16416,"byteLength":576,"target":34962,"byteStride":8},{"buffer":0,"byteOffset":16992,"byteLength":144,"target":34963},{"buffer":0,"byteOffset":17136,"byteLength":40},{"buffer":0,"byteOffset":17176,"byteLength":160},{"buffer":0,"byteOffset":17336,"byteLength":40},{"buffer":0,"byteOffset":17376,"byteLength":160},{"buffer":0,"byteOffset":17536,"byteLength":36},{"buffer":0,"byteOffset":17572,"byteLength":144},{"buffer":0,"byteOffset":17716,"byteLength":36},{"buffer":0,"byteOffset":17752,"byteLength":144},{"buffer":0,"byteOffset":17896,"byteLength":40},{"buffer":0,"byteOffset":17936,"byteLength":160},{"buffer":0,"byteOffset":18096,"byteLength":40},{"buffer":0,"byteOffset":18136,"byteLength":160}],"buffers":[{"byteLength":18296,"uri":"data:application/octet-stream;base64,"}],"accessors":[{"bufferView":0,"componentType":5126,"count":72,"max":[0.09375,6.375,0.09375],"min":[-0.09375,0,-0.09375],"type":"VEC3"},{"bufferView":1,"componentType":5126,"count":72,"max":[0.9998918771743774,0.014704292640089989,0.9998918771743774],"min":[-0.9998918771743774,-1,-0.9998918771743774],"type":"VEC3"},{"bufferView":2,"componentType":5126,"count":72,"max":[0.4324440360069275,0.9023871421813965],"min":[0,0],"type":"VEC2"},{"bufferView":3,"componentType":5123,"count":72,"max":[71],"min":[0],"type":"SCALAR"},{"bufferView":4,"componentType":5126,"count":72,"max":[1.4375,0.5,1.4375],"min":[-1.4375,0,-1.4375],"type":"VEC3"},{"bufferView":5,"componentType":5126,"count":72,"max":[0.32852062582969666,0.9444968104362488,0.32852062582969666],"min":[-0.32852062582969666,-1,-0.32852062582969666],"type":"VEC3"},{"bufferView":6,"componentType":5126,"count":72,"max":[0.328125,0.33203125],"min":[0.0008553453371860087,0],"type":"VEC2"},{"bufferView":7,"componentType":5123,"count":72,"max":[71],"min":[0],"type":"SCALAR"},{"bufferView":8,"componentType":5126,"count":72,"max":[1.3125,0.5,1.3125],"min":[-1.3125,0,-1.3125],"type":"VEC3"},{"bufferView":9,"componentType":5126,"count":72,"max":[0.3559953272342682,0.9344877600669861,0.3559953272342682],"min":[-0.3559953272342682,-1,-0.3559953272342682],"type":"VEC3"},{"bufferView":10,"componentType":5126,"count":72,"max":[0.44498947262763977,0.421875],"min":[0,0],"type":"VEC2"},{"bufferView":11,"componentType":5123,"count":72,"max":[71],"min":[0],"type":"SCALAR"},{"bufferView":12,"componentType":5126,"count":72,"max":[0.9375,0.5,0.9375],"min":[-0.9375,0,-0.9375],"type":"VEC3"},{"bufferView":13,"componentType":5126,"count":72,"max":[0.47058823704719543,0.8823529481887817,0.47058823704719543],"min":[-0.47058823704719543,-1,-0.47058823704719543],"type":"VEC3"},{"bufferView":14,"componentType":5126,"count":72,"max":[0.5896206498146057,0.54296875],"min":[0,0.296875],"type":"VEC2"},{"bufferView":15,"componentType":5123,"count":72,"max":[71],"min":[0],"type":"SCALAR"},{"bufferView":16,"componentType":5126,"count":72,"max":[1.0625,0.5,1.0625],"min":[-1.0625,0,-1.0625],"type":"VEC3"},{"bufferView":17,"componentType":5126,"count":72,"max":[0.4257970452308655,0.9048187136650085,0.4257970452308655],"min":[-0.4257970452308655,-1,-0.4257970452308655],"type":"VEC3"},{"bufferView":18,"componentType":5126,"count":72,"max":[0.5849488973617554,0.5577667951583862],"min":[0.10291491448879242,0.16015625],"type":"VEC2"},{"bufferView":19,"componentType":5123,"count":72,"max":[71],"min":[0],"type":"SCALAR"},{"bufferView":20,"componentType":5126,"count":72,"max":[1.1875,0.5,1.1875],"min":[-1.1875,0,-1.1875],"type":"VEC3"},{"bufferView":21,"componentType":5126,"count":72,"max":[0.38805699348449707,0.9216353893280029,0.38805699348449707],"min":[-0.38805699348449707,-1,-0.38805699348449707],"type":"VEC3"},{"bufferView":22,"componentType":5126,"count":72,"max":[0.45926570892333984,0.5078125],"min":[0.1484375,0.05859375],"type":"VEC2"},{"bufferView":23,"componentType":5123,"count":72,"max":[71],"min":[0],"type":"SCALAR"},{"bufferView":24,"componentType":5126,"count":72,"max":[0.8125,0.5,0.8125],"min":[-0.8125,0,-0.8125],"type":"VEC3"},{"bufferView":25,"componentType":5126,"count":72,"max":[0.5240974426269531,0.8516583442687988,0.5240974426269531],"min":[-0.5240974426269531,-1,-0.5240974426269531],"type":"VEC3"},{"bufferView":26,"componentType":5126,"count":72,"max":[0.5806906223297119,0.43853282928466797],"min":[0.44921875,0],"type":"VEC2"},{"bufferView":27,"componentType":5123,"count":72,"max":[71],"min":[0],"type":"SCALAR"},{"bufferView":28,"componentType":5126,"count":10,"max":[0.5],"min":[0],"type":"SCALAR"},{"bufferView":29,"componentType":5126,"count":10,"max":[0,0,0.017452405765652657,1],"min":[0,0,-0.017452405765652657,0.9998477101325989],"type":"VEC4"},{"bufferView":30,"componentType":5126,"count":10,"max":[0.75],"min":[0],"type":"SCALAR"},{"bufferView":31,"componentType":5126,"count":10,"max":[0,0,0.017452405765652657,1],"min":[0,0,-0.017452405765652657,0.9998477101325989],"type":"VEC4"},{"bufferView":32,"componentType":5126,"count":9,"max":[1.0833333730697632],"min":[0],"type":"SCALAR"},{"bufferView":33,"componentType":5126,"count":9,"max":[0,0,0.017452405765652657,1],"min":[0,0,-0.017452405765652657,0.9998477101325989],"type":"VEC4"},{"bufferView":34,"componentType":5126,"count":9,"max":[0.9583333134651184],"min":[0],"type":"SCALAR"},{"bufferView":35,"componentType":5126,"count":9,"max":[0,0,1.496188244682033e-17,1],"min":[0,0,-2.137411872652117e-17,1],"type":"VEC4"},{"bufferView":36,"componentType":5126,"count":10,"max":[0.8333333134651184],"min":[0],"type":"SCALAR"},{"bufferView":37,"componentType":5126,"count":10,"max":[0,0,0.017452405765652657,1],"min":[0,0,-0.017452405765652657,0.9998477101325989],"type":"VEC4"},{"bufferView":38,"componentType":5126,"count":10,"max":[0.625],"min":[0],"type":"SCALAR"},{"bufferView":39,"componentType":5126,"count":10,"max":[0,0,0.017452405765652657,1],"min":[0,0,-1.2824470905040457e-17,0.9998477101325989],"type":"VEC4"}],"materials":[{"pbrMetallicRoughness":{"metallicFactor":0,"roughnessFactor":1,"baseColorTexture":{"index":0}},"alphaMode":"MASK","alphaCutoff":0.05,"doubleSided":true}],"textures":[{"sampler":0,"source":0,"name":"tree"}],"samplers":[{"magFilter":9728,"minFilter":9728,"wrapS":33071,"wrapT":33071}],"images":[{"mimeType":"image/png","uri":"data:image/png;base64,"}],"meshes":[{"primitives":[{"mode":4,"attributes":{"POSITION":0,"NORMAL":1,"TEXCOORD_0":2},"indices":3,"material":0}]},{"primitives":[{"mode":4,"attributes":{"POSITION":4,"NORMAL":5,"TEXCOORD_0":6},"indices":7,"material":0}]},{"primitives":[{"mode":4,"attributes":{"POSITION":8,"NORMAL":9,"TEXCOORD_0":10},"indices":11,"material":0}]},{"primitives":[{"mode":4,"attributes":{"POSITION":12,"NORMAL":13,"TEXCOORD_0":14},"indices":15,"material":0}]},{"primitives":[{"mode":4,"attributes":{"POSITION":16,"NORMAL":17,"TEXCOORD_0":18},"indices":19,"material":0}]},{"primitives":[{"mode":4,"attributes":{"POSITION":20,"NORMAL":21,"TEXCOORD_0":22},"indices":23,"material":0}]},{"primitives":[{"mode":4,"attributes":{"POSITION":24,"NORMAL":25,"TEXCOORD_0":26},"indices":27,"material":0}]}],"animations":[{"name":"idle-loop","samplers":[{"input":28,"output":29,"interpolation":"LINEAR"},{"input":30,"output":31,"interpolation":"LINEAR"},{"input":32,"output":33,"interpolation":"LINEAR"},{"input":34,"output":35,"interpolation":"LINEAR"},{"input":36,"output":37,"interpolation":"LINEAR"},{"input":38,"output":39,"interpolation":"LINEAR"}],"channels":[{"sampler":0,"target":{"node":2,"path":"rotation"}},{"sampler":1,"target":{"node":4,"path":"rotation"}},{"sampler":2,"target":{"node":6,"path":"rotation"}},{"sampler":3,"target":{"node":8,"path":"rotation"}},{"sampler":4,"target":{"node":10,"path":"rotation"}},{"sampler":5,"target":{"node":12,"path":"rotation"}}]}]}